<svg id="visual" viewBox="0 0 960 540" width="960" height="540" xmlns="http://www.w3.org/2000/svg" xmlns:xlink="http://www.w3.org/1999/xlink" version="1.1"><rect x="0" y="0" width="960" height="540" fill="#001220"></rect><defs><linearGradient id="grad1_0" x1="43.8%" y1="0%" x2="100%" y2="100%"><stop offset="14.444444444444446%" stop-color="#001220" stop-opacity="1"></stop><stop offset="85.55555555555554%" stop-color="#001220" stop-opacity="1"></stop></linearGradient></defs><defs><linearGradient id="grad2_0" x1="0%" y1="0%" x2="56.3%" y2="100%"><stop offset="14.444444444444446%" stop-color="#001220" stop-opacity="1"></stop><stop offset="85.55555555555554%" stop-color="#001220" stop-opacity="1"></stop></linearGradient></defs><g transform="translate(960, 0)"><path d="M0 486C-40.9 448.3 -81.7 410.5 -128.9 396.6C-176 382.7 -229.4 392.6 -274.5 377.8C-319.6 363 -356.5 323.5 -388.3 282.1C-420.1 240.8 -446.8 197.5 -462.2 150.2C-477.6 102.8 -481.8 51.4 -486 0L0 0Z" fill="#FBAE3C"></path></g><g transform="translate(0, 540)"><path d="M0 -486C55.3 -488.1 110.6 -490.3 150.2 -462.2C189.8 -434.1 213.8 -375.8 246.3 -339C278.8 -302.1 319.8 -286.8 356 -258.6C392.1 -230.5 423.3 -189.5 444.1 -144.3C465 -99.1 475.5 -49.5 486 0L0 0Z" fill="#FBAE3C"></path></g></svg>